<?xml version="1.0" encoding="utf-8"?>
<!-- Generator: Adobe Illustrator 26.3.1, SVG Export Plug-In . SVG Version: 6.00 Build 0)  -->
<svg version="1.1" id="Layer_1" xmlns="http://www.w3.org/2000/svg" xmlns:xlink="http://www.w3.org/1999/xlink" x="0px" y="0px"
	 viewBox="0 0 337.9 332" style="enable-background:new 0 0 337.9 332;" xml:space="preserve">
<style type="text/css">
	.st0{fill:#00467F;}
	.st1{fill:#FFFFFF;}
	.st2{fill:none;}
</style>
<g>
	<path class="st0" d="M289.3,332H0V48.6L48.5,0h289.4v283.5L289.3,332z"/>
	<path class="st1" d="M145.7,177.2v-3.8h-12.5v23.8H146v-3.8h-9v-6.3h8.5v-3.8H137v-6.1L145.7,177.2z M58.7,197.5
		c3.1,0,5.5-0.9,7.2-2.7c1.6-1.7,2.4-4.1,2.4-7v-14.3h-3.8v13.8c0,2.4-0.3,3.8-1.2,4.7c-0.6,0.6-1.9,1.7-4.5,1.7
		c-1.7,0-3-0.6-4.2-1.8c-0.9-1-1.1-2-1.1-4.4v-14l-3.8,0v14.7c0,3,1,5.5,2.8,7.1C54,196.7,56.2,197.5,58.7,197.5z M93.6,197.2v-23.8
		H90v17l-13.4-17h-3v23.8h3.6v-16.9c0.3,0.4,13.2,16.9,13.2,16.9L93.6,197.2L93.6,197.2z M127.8,173.4H124c0,0-5.7,14.9-5.9,15.4
		c-0.2-0.4-5.9-15.4-5.9-15.4h-3.8l9.2,24l1.2,0C118.7,197.4,127.8,173.4,127.8,173.4z M163.8,197.2h4.5l-0.6-0.9
		c-1.2-1.9-1.8-2.7-2.6-4.2c-0.7-1.3-1.5-2.7-2.2-3.8c-0.7-1-1.3-1.7-2-2.3c2-1.1,3.1-3.1,3.1-5.7c0-2.1-0.7-3.8-2-5
		c-1.3-1.2-3.1-1.8-5.2-1.8h-5.6v23.8l3.8,0v-10h0.8c1.3,0,2.4,0.4,5.1,5.1L163.8,197.2z M160.1,180.2c0,1-0.3,1.8-0.8,2.3
		c-0.6,0.6-1.6,0.9-2.9,0.9H155v-6.4h1.5C158.9,177.1,160.1,178,160.1,180.2L160.1,180.2L160.1,180.2z M178.6,177.2
		c1.6,0,3.1,0.8,4.5,2.3l0.5,0.6l0.2,0.2v-5l-0.1,0l-0.1-0.1c-1.5-1.1-3.2-1.7-4.9-1.7c-2,0-3.6,0.6-4.8,1.8
		c-1.2,1.2-1.8,2.8-1.8,4.8c0,3.3,2.3,5.1,4.6,6.7l0.6,0.4l1.1,0.7c0.6,0.4,1,0.8,1.4,1.1c0.9,0.8,1.3,1.7,1.3,2.6
		c0,1-0.8,2.5-3,2.5c-1.9,0-3.7-1.1-5.1-3.2l-0.6-0.8l-0.2-0.3l0.1,5.8l0,0c1.8,1.5,3.7,2.2,6,2.2c1.7,0,3.3-0.7,4.4-1.9
		c1.1-1.2,1.8-2.9,1.8-4.7c0-3.9-2.4-5.8-4.7-7.2l-1.6-1c-0.6-0.4-1-0.7-1.4-1c-0.9-0.8-1.3-1.5-1.3-2.4
		C175.8,178.1,177,177.2,178.6,177.2L178.6,177.2z M228.9,197.2h3.8v-12.4c0-0.1,8.1-11.4,8.1-11.4h-4.6c0,0-5.2,7.4-5.4,7.6
		c-0.1-0.2-5.3-7.6-5.3-7.6l-4.6,0c0,0,8,11.3,8.1,11.3C228.9,184.8,228.9,197.2,228.9,197.2L228.9,197.2z M99.1,173.4h3.8v23.8
		h-3.8V173.4z M190.1,173.4h3.8v23.8h-3.8V173.4z M206.4,197.2h3.8v-20h7.1v-3.8h-18.1v3.8h7.1L206.4,197.2z M281.5,186.4h8v-3.7h-8
		v-5.5h8v-3.7h-11.7v23.5h3.7V186.4z M260.9,197.5c3.4,0,6.3-1.3,8.4-3.7c2-2.2,3-5.2,3-8.4c0-3.2-1.1-6.2-3.1-8.4
		c-2.1-2.3-5-3.6-8.3-3.6c-3.2,0-6.2,1.3-8.2,3.6c-2,2.2-3.1,5.2-3.1,8.4c0,3.2,1.1,6.2,3,8.4C254.7,196.2,257.6,197.5,260.9,197.5z
		 M255.5,179.5c1.4-1.5,3.3-2.3,5.4-2.3c4.4,0,7.5,3.5,7.5,8.2c0,2.3-0.8,4.4-2.1,5.9c-1.4,1.5-3.3,2.3-5.4,2.3
		c-2.1,0-4-0.8-5.4-2.3c-1.4-1.5-2.1-3.6-2.1-5.9C253.4,183.2,254.1,181.1,255.5,179.5L255.5,179.5z M212.1,204.6h-3.5L196.5,236
		h5.1c0,0,3.4-8.7,3.4-8.9h10.8l3.6,8.9h5.1L212.1,204.6z M207,222.2c0.1-0.3,3.1-8.3,3.3-8.9c0.2,0.6,3.4,8.6,3.6,8.9H207z
		 M191.4,231.1h-12.3v-26.3h-5V236h17.2V231.1z M57.9,227.1h10.8c0.1,0.1,3.6,8.9,3.6,8.9h5.1l-12.6-31.4h-3.5L49.3,236h5.2
		C54.5,236,57.9,227.3,57.9,227.1L57.9,227.1z M63.2,213.3c0.2,0.6,3.4,8.6,3.6,8.9h-6.9C60,221.9,62.9,213.8,63.2,213.3z
		 M138.9,233.6v-6.1l-0.2,0.1l-0.6,0.5c-2.9,2.1-6.2,3.3-9.2,3.3c-3.1,0-5.7-1-7.6-3c-1.9-2-2.9-4.7-2.9-7.9c0-3.1,1-5.9,2.9-7.9
		c1.9-2,4.5-3.1,7.4-3.1c3,0,5.8,0.9,9.1,3.1l0.6,0.4l0.2,0.1l-0.2-6.1l-0.1,0c-3.8-1.8-6.7-2.5-9.6-2.5c-8.9,0-15.4,6.9-15.4,16.5
		c0,3.6,1.3,7.4,3.6,10.2c2,2.4,5.6,5.4,11.6,5.4C133.3,236.4,136.3,235.1,138.9,233.6L138.9,233.6L138.9,233.6z M154.3,219.6
		l12.3-14.8h-6.3c0,0-10.2,12.3-10.6,12.9v-12.9h-5V236h5v-14.1c0.4,0.5,13.1,14.1,13.1,14.1h6.8C169.5,236,154.4,219.8,154.3,219.6
		z M286.6,209.9c-2.7-3.3-6.6-5.1-11.4-5.1h-11.1V236h11.1c4.4,0,8.2-1.7,11-4.8c2.5-2.9,4-6.8,4-10.8
		C290.2,216.5,288.9,212.6,286.6,209.9L286.6,209.9z M274.8,231.1h-5.7v-21.3h5.5c3.4,0,6.1,1.1,8,3.1c1.7,1.9,2.6,4.5,2.6,7.5
		C285.2,224.4,283,231.1,274.8,231.1L274.8,231.1z M94.9,236.4c4.1,0,7.3-1.2,9.5-3.5c2.1-2.2,3.1-5.4,3.1-9.3v-18.9h-5v18.1
		c0,3.2-0.5,5-1.6,6.2c-0.8,0.8-2.5,2.2-6,2.2c-2.2,0-4-0.8-5.5-2.4c-1.1-1.3-1.5-2.6-1.5-5.8v-18.4l-5,0v19.3
		c0,3.9,1.3,7.2,3.7,9.4C88.8,235.4,91.7,236.4,94.9,236.4z M251.3,227.1l-17.6-22.4l-3.9,0V236h4.7v-22.2
		c0.4,0.6,17.4,22.2,17.4,22.2h4.1v-31.2h-4.8C251.3,204.8,251.3,226.4,251.3,227.1z M49.5,274.1H290v1.4H49.5V274.1z"/>
	<path class="st2" d="M169.8,158.4c-18.3-7.7-31.8-19.5-40.1-35.2c-6-11.3-7.6-21.8-7.6-25.8V49.2h95.6v48.2
		c0,11.4-8.6,44.6-47.6,61l-0.1,0.1L169.8,158.4z"/>
	<path class="st1" d="M145.6,98.8l5.7-4.3l5.7,4.3l-2.2-6.8l6-4.3h-7.3l-2.2-6.9l-2.2,6.9h-7.3l6,4.3L145.6,98.8z M182.8,98.8
		l5.7-4.3l5.7,4.3l-2.2-6.8l6-4.3h-7.3l-2.2-6.9l-2.2,6.9H179l6,4.3L182.8,98.8z M172.1,141.4l-2.2-6.9l-2.2,6.9h-7.3l6,4.3
		l-2.2,6.8l5.7-4.3l5.7,4.3l-2.2-6.8l6-4.3H172.1z M201.2,123.9c-0.4,0-0.7,0.2-0.9,0.4l-0.1,0.2h-1.9v-2.3h1.9l0.1,0.2
		c0.2,0.3,0.6,0.4,0.9,0.4c0.6,0,1.2-0.5,1.2-1.1c0-0.6-0.5-1.1-1.2-1.1c-0.4,0-0.7,0.2-0.9,0.4l-0.1,0.2h-1.9V119h1.9l0.1,0.2
		c0.2,0.3,0.6,0.4,0.9,0.4c0.6,0,1.2-0.5,1.2-1.1s-0.5-1.1-1.2-1.1c-0.4,0-0.7,0.2-0.9,0.4l-0.1,0.2h-1.9v-2.3h1.9l0.1,0.2
		c0.2,0.3,0.6,0.4,0.9,0.4c0.6,0,1.2-0.5,1.2-1.1c0-0.6-0.5-1.1-1.2-1.1c-0.4,0-0.7,0.2-0.9,0.4l-0.1,0.2h-1.9v-2.3h1.9l0.1,0.2
		c0.2,0.3,0.6,0.4,0.9,0.4c0.6,0,1.2-0.5,1.2-1.1c0-0.6-0.5-1.1-1.2-1.1c-0.4,0-0.7,0.2-0.9,0.4l-0.1,0.2h-1.9v-2.3h1.9l0.1,0.2
		c0.2,0.3,0.6,0.4,0.9,0.4c0.6,0,1.2-0.5,1.2-1.1s-0.5-1.1-1.2-1.1c-0.4,0-0.7,0.2-0.9,0.4l-0.1,0.2h-1.9v-2.3h1.9l0.1,0.2
		c0.2,0.3,0.6,0.4,0.9,0.4c0.6,0,1.2-0.5,1.2-1.1c0-0.6-0.5-1.1-1.2-1.1c-0.4,0-0.7,0.2-0.9,0.4L200,105l-1.5,0l-1.6-0.8v20.9
		l-0.3,0.4c-4.7,2.3-8.9,2.6-12.6,0.8c-4.1-2.1-9.9-2.5-13.4,2.5h1.6c0.3,0,0.5,0.2,0.5,0.5s-0.2,0.5-0.5,0.5h-5.1
		c-0.3,0-0.5-0.2-0.5-0.5s0.2-0.5,0.5-0.5h1.6c-3.4-5-9.2-4.8-13.3-2.5c-3.9,2.2-8.3,1.9-12.6-0.8l-0.2-0.4v-20.9l-1.6,0.8l-1.5,0
		l-0.1-0.2c-0.2-0.3-0.6-0.4-0.9-0.4c-0.6,0-1.2,0.5-1.2,1.1c0,0.6,0.5,1.1,1.2,1.1c0.4,0,0.7-0.2,0.9-0.4l0.1-0.2h1.9v2.3h-1.9
		l-0.1-0.2c-0.2-0.3-0.6-0.4-0.9-0.4c-0.6,0-1.2,0.5-1.2,1.1c0,0.6,0.5,1.1,1.2,1.1c0.4,0,0.7-0.2,0.9-0.4l0.1-0.2h1.9v2.3h-1.9
		l-0.1-0.2c-0.2-0.3-0.6-0.4-0.9-0.4c-0.6,0-1.2,0.5-1.2,1.1s0.5,1.1,1.2,1.1c0.4,0,0.7-0.2,0.9-0.4l0.1-0.2h1.9v2.3h-1.9l-0.1-0.2
		c-0.2-0.3-0.6-0.4-0.9-0.4c-0.6,0-1.2,0.5-1.2,1.1s0.5,1.1,1.2,1.1c0.4,0,0.7-0.2,0.9-0.4l0.1-0.2h1.9v2.3h-1.9l-0.1-0.2
		c-0.2-0.3-0.6-0.4-0.9-0.4c-0.6,0-1.2,0.5-1.2,1.1c0,0.6,0.5,1.1,1.2,1.1c0.4,0,0.7-0.2,0.9-0.4l0.1-0.2h1.9v2.3h-1.9l-0.1-0.2
		c-0.2-0.3-0.6-0.4-0.9-0.4c-0.6,0-1.2,0.5-1.2,1.1s0.5,1.1,1.2,1.1c0.4,0,0.7-0.2,0.9-0.4l0.1-0.2h1.9v2.3h-1.9l-0.1-0.2
		c-0.2-0.3-0.6-0.4-0.9-0.4c-0.6,0-1.2,0.5-1.2,1.1s0.5,1.1,1.2,1.1c0.4,0,0.7-0.2,0.9-0.4l0.1-0.2h1.6l0.1,0.1
		c2.5,2.2,5.2,3.2,8.7,3.2c2.7,0,4.3-0.4,6-1.5c1.6-1,3.3-1.5,5-1.5s3.5,0.5,5,1.5l0.7,0.5l-0.7,0.4c-0.5,0.2-0.8,0.8-0.8,1.3
		c0,0.8,0.7,1.5,1.5,1.5h6.3c0.8,0,1.5-0.7,1.5-1.5c0-0.6-0.3-1.1-0.8-1.3l-0.7-0.4l0.7-0.5c3.1-2.1,6.9-2.1,10,0
		c1.7,1.1,3.3,1.5,6,1.5c3.4,0,6.2-1,8.7-3.2l0.1-0.1h1.6l0.1,0.2c0.2,0.3,0.6,0.4,0.9,0.4c0.6,0,1.2-0.5,1.2-1.1
		S201.8,123.9,201.2,123.9L201.2,123.9z"/>
	<path class="st1" d="M143.8,103.7v21.2c3.9,2.4,7.9,2.6,11.4,0.6c4.4-2.5,10.4-2.7,14.2,2.3v-1.6c-3.1-3-8.4-4.8-13.7-2.1
		c-4.8,2.5-7.4,2-10.6,0.3l-0.3-0.1v-21.1L143.8,103.7z M184.6,125.4c3.2,1.6,7.1,1.4,11.4-0.7v-21.1l-1.1-0.5v21.1l-0.3,0.1
		c-3.2,1.7-5.9,2.2-10.6-0.3c-5.2-2.7-10.6-0.9-13.7,2.1v1.6C174.2,122.7,180.3,123.3,184.6,125.4z"/>
	<path class="st1" d="M146,102.6l-0.1,0.1v21c2.9,1.5,5.2,1.8,9.4-0.4c1.9-1,3.9-1.4,5.8-1.4c3.2,0,6.1,1.2,8.3,3.1v-21.4
		c-4.5-3.1-9-3.7-13.4-1.8C152.3,103.1,149.6,103.4,146,102.6z M184.5,123.2c4.2,2.2,6.6,1.9,9.4,0.4v-21l-0.1-0.1
		c-3.6,0.8-6.4,0.6-10-1c-4.4-1.9-8.9-1.3-13.4,1.8v21.4C173.8,122,179.2,120.5,184.5,123.2z M193.5,61.1c0.2,0.2,1.5,3.4,4.3,3.6
		c0.3,0.2,1.8,2.6,4.3,2.4c0,0.3,0,2.6,0.5,3.3l0.1,0.1c0-0.1,0,0,0,0c0.2-0.2,1.6-1.3,2.8-1.7c0,0,0.5-1.6,0.9-2
		c2.5-0.6,3.8-2.5,3.8-4.4c0.1-2.6-2.3-5.5-4.9-5.1c0,0-0.1,0,0-0.1c0.1-0.2,0.8-0.5,1.3-0.6c-2.2-0.9-3.6,0.2-3.6,0.1l0-0.1
		c0,0,0.3-0.5,1-1c-2,0-3.1,1.1-3.1,1.1l0-0.2c0,0,0.1-0.4,0.8-1c-2.3,0.1-4.1,3-4.1,3s-0.4-2.1-2.4-2.1c-1.4-0.2-4.7,1.8-3.4,4.5
		c-0.6,1.1-2.5,2.7-4.1,6.1c0,0.1,0,0.1,0,0.1C189.2,65.1,191.3,62.4,193.5,61.1L193.5,61.1z M193,59.2c0.3,0,0.6,0.3,0.6,0.6
		c0,0.3-0.3,0.6-0.6,0.6c-0.3,0-0.6-0.3-0.6-0.6l0,0C192.4,59.5,192.7,59.2,193,59.2z M162.9,61.1c0.2,0.2,1.5,3.4,4.3,3.6
		c0.3,0.2,1.8,2.6,4.3,2.4c0,0.3,0,2.6,0.5,3.3l0.1,0.1c0-0.1,0,0,0,0c0.2-0.2,1.6-1.3,2.8-1.7c0,0,0.5-1.6,0.9-2
		c2.5-0.6,3.7-2.5,3.8-4.4c0.1-2.6-2.3-5.5-4.9-5.1c0,0-0.1,0,0-0.1c0.1-0.2,0.9-0.5,1.3-0.6c-2.2-0.9-3.6,0.2-3.6,0.1l0-0.1
		c0,0,0.3-0.5,1-1c-2,0-3,1.1-3,1.1l0-0.2c0,0,0.1-0.4,0.8-1c-2.3,0.1-4.1,3-4.1,3s-0.4-2.1-2.4-2.1c-1.4-0.2-4.7,1.8-3.4,4.5
		c-0.6,1.1-2.5,2.7-4.1,6.1c0,0.1,0,0.1,0,0.1C158.6,65.1,160.7,62.4,162.9,61.1L162.9,61.1z M162.4,59.2c0.3,0,0.6,0.3,0.6,0.6
		s-0.3,0.6-0.6,0.6c-0.3,0-0.6-0.3-0.6-0.6C161.8,59.5,162.1,59.2,162.4,59.2z"/>
	<path class="st1" d="M121.4,48.5v49c0,4.1,1.6,14.7,7.6,26.1c8.4,15.8,22,27.8,40.5,35.5l0.4,0.2l0.4-0.2
		c39.4-16.5,48.1-50.1,48.1-61.6v-49H121.4L121.4,48.5z M186.4,67.9c0.7-2,2.4-4.7,4.3-7.1c-0.7-4.1,3-5.4,4.5-5.3
		c1.5,0,2.6,1,2.7,1.3c1.7-2,4-2.2,5-2.3c7.3-0.2,11,5.2,10.8,9.6c-0.2,5-4,6.1-4.5,6.3c0,0-0.1,1.1,0.8,2.5
		c0.1,0.1,0.2,0.2,0.1,0.5c0,0.1-0.2,0.3-0.2,0.4c0,0.1-0.1,0.2-0.1,0.4c0.1,0.3,0,0.7-0.3,1.2c-0.2,0.4,0,1.4,0.1,2.1
		c0,0.1-0.1,0.2-0.2,0.1c-0.5-0.3-0.8-1.2-0.9-1.8c-0.9,0.2-1.9,1.5-2.3,2.3c0,0.1-0.2,0.2-0.2,0c0-0.1-0.2-1.5,1.2-2.6
		c-0.7-0.2-1.5,0.1-2,0.4c0,0-0.2,0.1-0.1-0.1c0-0.1,0.4-1,2.3-1.2c0-0.1,0.4-0.7,0.6-1.2c0-0.7-0.4-1.6-0.9-2.4
		c-0.1,0-1.4,0.1-2.4,0.8c-0.1,0-0.2,0.2-0.2,0.3v0.4c0,0.1-0.1,0.4-0.6,0.6c0,0-1.6,0.6-2.4,0.9c0,0-0.7,0.3-1.2,1
		c-0.1,0.1-0.5,0.7-1.1,0.9c-0.1,0-0.5,0.2-0.7,0.4c-0.2,0.2-0.4,0.4-0.6,0.6s-0.6,0.6-0.9,1.2c-0.1,0.1-0.1,0.2-0.1,0
		c0-0.3,0-0.6,0-0.6c0.2-0.8,0.6-1.2,0.9-1.6c-0.1,0-0.1,0-0.2-0.1c-0.6,0.1-2.4-0.1-3.5,0.4c-0.1,0-0.2,0-0.1-0.1
		c0.2-0.3,0.6-1.3,3.1-1.4c0-0.2-1.1-0.8-1.7-0.8c-0.2,0-0.1-0.1,0-0.1c0.1-0.1,1.2-0.5,2.5,0.3c0.1,0,0.9-0.3,1.4-0.4
		c0.6-0.4,1.9-1.8,2.4-2c0-0.1-0.1-0.4,0-0.7l-0.1,0c-0.7-1-0.8-2.4-0.8-3.2c-1.4-0.1-2.9-1.4-3.7-2.4c-1-0.1-3.1-0.9-4.2-3.2
		c-3.7,2.7-6.1,7.4-6.3,7.7c-0.1,0.1-0.1,0.1-0.2,0C186.4,69.4,186.3,68.2,186.4,67.9L186.4,67.9z M155.9,67.9
		c0.7-2,2.4-4.7,4.3-7.1c-0.7-4.1,3-5.4,4.5-5.3c1.5,0,2.6,1,2.7,1.3c1.7-2,4-2.2,5-2.3c7.3-0.2,11,5.2,10.8,9.6
		c-0.2,5-4,6.1-4.5,6.3c0,0-0.1,1.1,0.8,2.5c0.1,0.1,0.2,0.2,0.1,0.5c0,0.1-0.2,0.3-0.2,0.4c0,0.1-0.1,0.2-0.1,0.4
		c0.1,0.3,0,0.7-0.3,1.2c-0.2,0.4,0,1.4,0.1,2.1c0,0.1-0.1,0.2-0.2,0.1c-0.5-0.3-0.8-1.2-0.9-1.8c-0.9,0.2-1.9,1.5-2.3,2.3
		c0,0.1-0.2,0.2-0.3,0c0-0.1-0.2-1.5,1.2-2.6c-0.7-0.2-1.5,0.1-2,0.4c0,0-0.2,0.1-0.1-0.1c0-0.1,0.4-1,2.3-1.2
		c0-0.1,0.4-0.7,0.6-1.2c-0.1-0.7-0.4-1.6-0.9-2.4c-0.1,0-1.4,0.1-2.4,0.8c-0.1,0.1-0.2,0.2-0.2,0.3v0.4c0,0.1-0.1,0.4-0.6,0.6
		c-0.1,0-1.6,0.6-2.4,0.9c0,0-0.7,0.3-1.2,1c-0.1,0.1-0.5,0.7-1.1,0.9c-0.1,0-0.5,0.2-0.7,0.4c-0.2,0.2-0.4,0.4-0.6,0.6
		s-0.6,0.6-0.9,1.2c-0.1,0.1-0.1,0.2-0.1,0c0-0.3,0-0.6,0-0.6c0.2-0.8,0.6-1.2,0.9-1.6c-0.1,0-0.1,0-0.2-0.1
		c-0.6,0.1-2.4-0.1-3.5,0.4c-0.1,0-0.2,0-0.1-0.1c0.2-0.3,0.6-1.3,3.1-1.4c0-0.2-1.1-0.8-1.7-0.8c-0.2,0-0.1-0.1,0-0.1
		c0.1-0.1,1.2-0.5,2.5,0.3c0.1,0,0.9-0.3,1.4-0.4c0.6-0.4,1.9-1.8,2.4-2c0-0.1-0.1-0.4,0-0.7l-0.1,0c-0.7-1-0.8-2.4-0.8-3.2
		c-1.4-0.1-2.9-1.4-3.7-2.4c-1-0.1-3.1-0.9-4.2-3.2c-3.7,2.7-6.1,7.4-6.3,7.7c-0.1,0.1-0.1,0.1-0.2,0
		C155.8,69.4,155.7,68.2,155.9,67.9L155.9,67.9z M125.1,67.9c0.7-2,2.4-4.7,4.3-7.1c-0.7-4.1,3-5.4,4.5-5.3c1.5,0,2.6,1,2.8,1.3
		c1.7-2,4-2.2,5-2.3c7.3-0.2,11,5.2,10.8,9.6c-0.2,5-4,6.1-4.5,6.3c0,0-0.1,1.1,0.8,2.5c0.1,0.1,0.2,0.2,0.1,0.5
		c0,0.1-0.2,0.3-0.2,0.4c0,0.1-0.1,0.2,0,0.4c0.1,0.3,0,0.7-0.3,1.2c-0.2,0.4,0,1.4,0.1,2.1c0,0.1-0.1,0.2-0.2,0.1
		c-0.5-0.3-0.8-1.2-0.9-1.8c-0.9,0.2-1.9,1.5-2.2,2.3c0,0.1-0.2,0.2-0.2,0c0-0.1-0.2-1.5,1.2-2.6c-0.7-0.2-1.5,0.1-2,0.4
		c0,0-0.2,0.1-0.1-0.1c0-0.1,0.4-1,2.3-1.2c0-0.1,0.4-0.7,0.6-1.2c-0.1-0.7-0.4-1.6-0.9-2.4c-0.1,0-1.4,0.1-2.4,0.8
		c-0.1,0.1-0.2,0.2-0.2,0.3v0.4c0,0.1-0.1,0.4-0.6,0.6c0,0-1.6,0.6-2.4,0.9c0,0-0.7,0.3-1.2,1c-0.1,0.1-0.5,0.7-1.1,0.9
		c-0.1,0-0.5,0.2-0.7,0.4c-0.2,0.2-0.4,0.4-0.6,0.6s-0.6,0.6-0.9,1.2c-0.1,0.1-0.1,0.2-0.1,0c0-0.3,0-0.6,0-0.6
		c0.2-0.8,0.6-1.2,0.9-1.6c-0.1,0-0.1,0-0.2-0.1c-0.6,0.1-2.4-0.1-3.5,0.4c-0.1,0-0.2,0-0.1-0.1c0.2-0.3,0.6-1.3,3.1-1.4
		c0-0.2-1.1-0.8-1.7-0.8c-0.2,0-0.1-0.1,0-0.1c0.1-0.1,1.2-0.5,2.5,0.3c0.1,0,0.9-0.3,1.4-0.4c0.6-0.4,1.9-1.8,2.4-2
		c0-0.1-0.1-0.4,0-0.7l-0.1,0c-0.7-1-0.8-2.4-0.8-3.2c-1.4-0.1-2.9-1.4-3.7-2.4c-1-0.1-3.1-0.9-4.2-3.2c-3.7,2.7-6.1,7.4-6.3,7.7
		c-0.1,0.1-0.1,0.1-0.2,0C125,69.4,124.9,68.2,125.1,67.9L125.1,67.9z M216.3,97.5c0,11.1-8.4,43.4-46.4,59.5
		c-17.8-7.5-30.9-19.1-39-34.4c-5.8-11.1-7.4-21.3-7.4-25.1V77.6h0.1c2.7,0,5.3,0.7,7.6,2l0.3,0.2c4.5,2.7,10.4,2.7,14.9,0l0.2-0.1
		l0,0c4.8-2.7,11-2.7,15.7,0.1l0.1,0.1c4.5,2.6,10.4,2.6,14.9-0.1l0.1-0.1c4.8-2.8,11.1-2.7,15.8,0.1c4.6,2.7,10.5,2.7,15,0
		c2.4-1.4,5.2-2.2,8-2.2L216.3,97.5L216.3,97.5z"/>
	<path class="st1" d="M132.1,61.1c0.2,0.2,1.5,3.4,4.3,3.6c0.3,0.2,1.8,2.6,4.3,2.4c0,0.3,0,2.6,0.5,3.3l0.1,0.1c0-0.1,0,0,0,0
		c0.2-0.2,1.6-1.3,2.8-1.7c0,0,0.5-1.6,0.9-2c2.5-0.6,3.8-2.5,3.8-4.4c0.1-2.6-2.3-5.5-4.9-5.1c0,0-0.1,0,0-0.1
		c0.1-0.2,0.8-0.5,1.3-0.6c-2.2-0.9-3.6,0.2-3.6,0.1l0-0.1c0,0,0.3-0.5,1-1c-2,0-3.1,1.1-3.1,1.1l0-0.2c0,0,0.1-0.4,0.8-1
		c-2.3,0.1-4.1,3-4.1,3s-0.4-2.1-2.4-2.1c-1.4-0.2-4.7,1.8-3.4,4.5c-0.6,1.1-2.5,2.7-4.1,6.1c0,0.1,0,0.1,0,0.1
		C127.8,65.1,130,62.4,132.1,61.1L132.1,61.1z M131.7,59.2c0.3,0,0.6,0.3,0.6,0.6c0,0.3-0.3,0.6-0.6,0.6c-0.3,0-0.6-0.3-0.6-0.6l0,0
		C131.1,59.5,131.3,59.2,131.7,59.2z"/>
	<g>
		<path class="st1" d="M74.5,243.5h2.7l-7.6,18.9H69l-6.1-15.3l-6.2,15.3H56l-7.6-18.9h2.7l5.2,12.9l5.2-12.9h2.5l5.2,12.9
			L74.5,243.5L74.5,243.5z M85,254.9v5.3c0,0.4,0.1,0.6,0.4,0.6s0.8-0.2,1.4-0.7v1.5c-0.6,0.4-1,0.6-1.3,0.7s-0.7,0.2-1.1,0.2
			c-1.1,0-1.7-0.4-1.9-1.2c-1,0.8-2.2,1.2-3.3,1.2c-0.9,0-1.6-0.3-2.2-0.9s-0.9-1.3-0.9-2.1c0-0.8,0.3-1.5,0.8-2.1s1.4-1.1,2.4-1.5
			l3.1-1.1v-0.7c0-1.5-0.7-2.2-2.2-2.2c-1.3,0-2.6,0.7-3.9,2.1v-2.7c0.9-1.1,2.3-1.7,4.1-1.7c1.3,0,2.4,0.4,3.2,1.1
			c0.3,0.2,0.5,0.5,0.7,0.9c0.2,0.4,0.3,0.7,0.4,1.1C85,253.1,85,253.8,85,254.9L85,254.9z M82.6,259.8v-3.7l-1.6,0.6
			c-0.8,0.3-1.4,0.7-1.8,1c-0.3,0.3-0.5,0.8-0.5,1.3c0,0.5,0.2,0.9,0.5,1.2c0.3,0.3,0.8,0.5,1.3,0.5
			C81.2,260.8,81.9,260.5,82.6,259.8z M90.3,244.7c0.4,0,0.8,0.1,1,0.4s0.4,0.6,0.4,1c0,0.4-0.1,0.7-0.4,1c-0.3,0.3-0.6,0.4-1,0.4
			c-0.4,0-0.7-0.1-1-0.4c-0.3-0.3-0.4-0.6-0.4-1c0-0.4,0.1-0.7,0.4-1S89.9,244.7,90.3,244.7z M89.1,249.9h2.4v12.4h-2.4V249.9z
			 M94.3,268.6v-18.7h4.3c2.2,0,3.9,0.6,5.1,1.6s1.8,2.6,1.8,4.6c0,1.9-0.6,3.4-1.7,4.6c-1.2,1.2-2.6,1.8-4.4,1.8
			c-0.8,0-1.7-0.2-2.6-0.5v6.6L94.3,268.6L94.3,268.6z M98.6,252.2h-1.7v7.6c0.8,0.4,1.5,0.6,2.4,0.6c1.1,0,2.1-0.4,2.8-1.2
			c0.7-0.8,1.1-1.8,1.1-3.1c0-0.8-0.2-1.5-0.5-2.1c-0.3-0.6-0.8-1.1-1.4-1.4C100.6,252.3,99.7,252.2,98.6,252.2L98.6,252.2z
			 M116,254.9v5.3c0,0.4,0.1,0.6,0.4,0.6c0.3,0,0.8-0.2,1.4-0.7v1.5c-0.6,0.4-1,0.6-1.3,0.7s-0.7,0.2-1.1,0.2
			c-1.1,0-1.7-0.4-1.9-1.2c-1,0.8-2.2,1.2-3.3,1.2c-0.9,0-1.6-0.3-2.2-0.9s-0.9-1.3-0.9-2.1c0-0.8,0.3-1.5,0.8-2.1s1.4-1.1,2.4-1.5
			l3.1-1.1v-0.7c0-1.5-0.8-2.2-2.2-2.2c-1.3,0-2.6,0.7-3.9,2.1v-2.7c0.9-1.1,2.3-1.7,4.1-1.7c1.3,0,2.4,0.4,3.2,1.1
			c0.3,0.2,0.5,0.5,0.7,0.9c0.2,0.4,0.3,0.7,0.4,1.1C116,253.1,116,253.8,116,254.9L116,254.9z M113.6,259.8v-3.7l-1.6,0.6
			c-0.8,0.3-1.4,0.7-1.8,1c-0.3,0.3-0.5,0.8-0.5,1.3c0,0.5,0.2,0.9,0.5,1.2c0.3,0.3,0.8,0.5,1.3,0.5
			C112.2,260.8,113,260.5,113.6,259.8z M119.6,268.6v-18.7h4.3c2.2,0,3.9,0.6,5.1,1.6c1.2,1.1,1.8,2.6,1.8,4.6
			c0,1.9-0.6,3.4-1.7,4.6c-1.2,1.2-2.6,1.8-4.4,1.8c-0.8,0-1.7-0.2-2.6-0.5v6.6L119.6,268.6L119.6,268.6z M123.8,252.2h-1.7v7.6
			c0.8,0.4,1.5,0.6,2.4,0.6c1.2,0,2.1-0.4,2.8-1.2c0.7-0.8,1.1-1.8,1.1-3.1c0-0.8-0.2-1.5-0.5-2.1c-0.3-0.6-0.8-1.1-1.4-1.4
			S124.9,252.2,123.8,252.2L123.8,252.2z M141.3,254.9v5.3c0,0.4,0.1,0.6,0.4,0.6s0.8-0.2,1.4-0.7v1.5c-0.6,0.4-1,0.6-1.3,0.7
			s-0.7,0.2-1.1,0.2c-1.1,0-1.7-0.4-1.9-1.2c-1,0.8-2.1,1.2-3.3,1.2c-0.9,0-1.6-0.3-2.1-0.9c-0.6-0.6-0.9-1.3-0.9-2.1
			c0-0.8,0.3-1.5,0.8-2.1s1.4-1.1,2.4-1.5l3.1-1.1v-0.7c0-1.5-0.7-2.2-2.2-2.2c-1.3,0-2.6,0.7-3.9,2.1v-2.7c0.9-1.1,2.3-1.7,4.1-1.7
			c1.3,0,2.4,0.4,3.2,1.1c0.3,0.2,0.5,0.5,0.7,0.9s0.4,0.7,0.4,1.1C141.3,253.1,141.3,253.8,141.3,254.9L141.3,254.9z M138.9,259.8
			v-3.7l-1.6,0.6c-0.8,0.3-1.4,0.7-1.8,1c-0.4,0.3-0.5,0.8-0.5,1.3c0,0.5,0.2,0.9,0.5,1.2s0.8,0.5,1.3,0.5
			C137.5,260.8,138.2,260.5,138.9,259.8z M148.8,243.5h15.7v2.4h-6.6v16.4h-2.7v-16.4h-6.4V243.5z M171,254.9v5.3
			c0,0.4,0.1,0.6,0.4,0.6c0.3,0,0.8-0.2,1.4-0.7v1.5c-0.6,0.4-1,0.6-1.3,0.7s-0.7,0.2-1.1,0.2c-1.1,0-1.7-0.4-1.9-1.2
			c-1,0.8-2.1,1.2-3.3,1.2c-0.9,0-1.6-0.3-2.1-0.9c-0.6-0.6-0.9-1.3-0.9-2.1c0-0.8,0.3-1.5,0.8-2.1s1.4-1.1,2.4-1.5l3.1-1.1v-0.7
			c0-1.5-0.7-2.2-2.2-2.2c-1.3,0-2.6,0.7-3.9,2.1v-2.7c0.9-1.1,2.3-1.7,4.1-1.7c1.3,0,2.4,0.4,3.2,1.1c0.3,0.2,0.5,0.5,0.7,0.9
			s0.4,0.7,0.4,1.1C171,253.1,171,253.8,171,254.9L171,254.9z M168.6,259.8v-3.7l-1.6,0.6c-0.8,0.3-1.4,0.7-1.8,1
			c-0.4,0.3-0.5,0.8-0.5,1.3c0,0.5,0.2,0.9,0.5,1.2s0.8,0.5,1.3,0.5C167.2,260.8,167.9,260.5,168.6,259.8z M182.8,262.3v-1.6
			c-0.5,0.6-1.1,1-1.8,1.3c-0.7,0.3-1.3,0.5-2,0.5c-0.8,0-1.5-0.2-2.2-0.6c-0.7-0.4-1.2-0.9-1.5-1.6c-0.3-0.7-0.5-1.8-0.5-3.3v-7.1
			h2.4v7c0,1.3,0.2,2.2,0.6,2.7c0.4,0.5,1,0.8,2,0.8c1.2,0,2.2-0.6,3-1.7v-8.8h2.4v12.4L182.8,262.3L182.8,262.3z M198.3,253.3v9
			h-2.5v-6.9c0-1.4-0.2-2.3-0.6-2.9c-0.4-0.5-1-0.8-1.9-0.8c-0.5,0-1,0.1-1.4,0.4c-0.4,0.2-0.9,0.6-1.5,1.2v9h-2.4v-12.4h2.4v1.6
			c1.2-1.2,2.5-1.9,3.7-1.9c1.6,0,2.8,0.7,3.6,2.2c1.3-1.5,2.7-2.3,4.1-2.3c1.2,0,2.2,0.4,3,1.3c0.8,0.9,1.2,2.2,1.2,4v7.3h-2.4V255
			c0-1-0.2-1.8-0.6-2.4c-0.4-0.6-1-0.8-1.8-0.8C200.1,251.8,199.2,252.3,198.3,253.3L198.3,253.3z M217.2,254.9v5.3
			c0,0.4,0.1,0.6,0.4,0.6s0.8-0.2,1.4-0.7v1.5c-0.6,0.4-1,0.6-1.3,0.7s-0.7,0.2-1.1,0.2c-1.1,0-1.7-0.4-1.9-1.2
			c-1,0.8-2.1,1.2-3.3,1.2c-0.9,0-1.6-0.3-2.1-0.9c-0.6-0.6-0.9-1.3-0.9-2.1c0-0.8,0.3-1.5,0.8-2.1s1.4-1.1,2.4-1.5l3.1-1.1v-0.7
			c0-1.5-0.7-2.2-2.2-2.2c-1.3,0-2.6,0.7-3.9,2.1v-2.7c0.9-1.1,2.3-1.7,4.1-1.7c1.3,0,2.4,0.4,3.2,1.1c0.3,0.2,0.5,0.5,0.7,0.9
			s0.4,0.7,0.4,1.1C217.2,253.1,217.2,253.8,217.2,254.9L217.2,254.9z M214.8,259.8v-3.7l-1.6,0.6c-0.8,0.3-1.4,0.7-1.8,1
			c-0.4,0.3-0.5,0.8-0.5,1.3c0,0.5,0.2,0.9,0.5,1.2s0.8,0.5,1.3,0.5C213.4,260.8,214.1,260.5,214.8,259.8z M218.9,251.9l4.6-4.5v2.6
			h3.9v2.2h-3.9v6.1c0,1.4,0.6,2.1,1.8,2.1c0.9,0,1.8-0.3,2.8-0.9v2.3c-0.9,0.5-2,0.8-3.1,0.8c-1.1,0-2.1-0.3-2.8-1
			c-0.2-0.2-0.4-0.4-0.6-0.7c-0.1-0.2-0.3-0.6-0.4-1s-0.1-1.2-0.1-2.3v-5.5h-2.1V251.9L218.9,251.9z M238.1,254.9v5.3
			c0,0.4,0.1,0.6,0.4,0.6c0.3,0,0.8-0.2,1.4-0.7v1.5c-0.6,0.4-1,0.6-1.3,0.7s-0.7,0.2-1.1,0.2c-1.1,0-1.7-0.4-1.9-1.2
			c-1,0.8-2.1,1.2-3.3,1.2c-0.9,0-1.6-0.3-2.1-0.9c-0.6-0.6-0.9-1.3-0.9-2.1c0-0.8,0.3-1.5,0.8-2.1s1.4-1.1,2.4-1.5l3.1-1.1v-0.7
			c0-1.5-0.7-2.2-2.2-2.2c-1.3,0-2.6,0.7-3.9,2.1v-2.7c0.9-1.1,2.3-1.7,4.1-1.7c1.3,0,2.4,0.4,3.2,1.1c0.3,0.2,0.5,0.5,0.7,0.9
			c0.2,0.4,0.4,0.7,0.4,1.1C238.1,253.1,238.1,253.8,238.1,254.9L238.1,254.9z M235.7,259.8v-3.7l-1.6,0.6c-0.8,0.3-1.4,0.7-1.8,1
			c-0.4,0.3-0.5,0.8-0.5,1.3c0,0.5,0.2,0.9,0.5,1.2s0.8,0.5,1.3,0.5C234.3,260.8,235,260.5,235.7,259.8z M250.7,262.3v-18.8h4.7
			c1.9,0,3.4,0.5,4.5,1.4c1.1,0.9,1.7,2.2,1.7,3.8c0,1.1-0.3,2-0.8,2.8c-0.5,0.8-1.3,1.4-2.4,1.8c0.6,0.4,1.2,0.9,1.8,1.6
			c0.6,0.7,1.4,1.9,2.4,3.6c0.5,0.8,1,1.6,1.6,2.4l1,1.3H262l-0.8-1.2c0,0-0.1-0.1-0.2-0.2l-0.5-0.7l-0.8-1.4l-0.9-1.5
			c-0.6-0.8-1.1-1.4-1.5-1.8c-0.5-0.5-0.9-0.8-1.2-1c-0.4-0.2-1-0.3-1.9-0.3h-0.7v8.2L250.7,262.3L250.7,262.3z M254.2,245.8h-0.8
			v5.9h1c1.4,0,2.3-0.1,2.8-0.4c0.5-0.2,0.9-0.6,1.2-1.1c0.3-0.5,0.4-1,0.4-1.6c0-0.6-0.2-1.1-0.5-1.6s-0.8-0.8-1.3-1
			C256.5,245.9,255.5,245.8,254.2,245.8L254.2,245.8z M274.7,254.9v5.3c0,0.4,0.1,0.6,0.4,0.6s0.8-0.2,1.4-0.7v1.5
			c-0.6,0.4-1,0.6-1.3,0.7s-0.7,0.2-1.1,0.2c-1,0-1.7-0.4-1.9-1.2c-1,0.8-2.1,1.2-3.3,1.2c-0.9,0-1.6-0.3-2.1-0.9s-0.9-1.3-0.9-2.1
			c0-0.8,0.3-1.5,0.8-2.1s1.4-1.1,2.4-1.5l3.1-1.1v-0.7c0-1.5-0.7-2.2-2.2-2.2c-1.3,0-2.6,0.7-3.9,2.1v-2.7c1-1.1,2.3-1.7,4.1-1.7
			c1.3,0,2.4,0.4,3.2,1.1c0.3,0.2,0.5,0.5,0.7,0.9c0.2,0.4,0.4,0.7,0.4,1.1C274.7,253.1,274.7,253.8,274.7,254.9L274.7,254.9z
			 M272.3,259.8v-3.7l-1.6,0.6c-0.8,0.3-1.4,0.7-1.8,1c-0.3,0.3-0.5,0.8-0.5,1.3c0,0.5,0.2,0.9,0.5,1.2s0.8,0.5,1.3,0.5
			C270.9,260.8,271.6,260.5,272.3,259.8z M286.5,262.3v-1.6c-0.5,0.6-1.1,1-1.8,1.3c-0.7,0.3-1.3,0.5-2,0.5c-0.8,0-1.5-0.2-2.2-0.6
			c-0.7-0.4-1.2-0.9-1.5-1.6c-0.3-0.7-0.5-1.8-0.5-3.3v-7.1h2.5v7c0,1.3,0.2,2.2,0.6,2.7c0.4,0.5,1,0.8,2,0.8c1.2,0,2.2-0.6,3-1.7
			v-8.8h2.5v12.4L286.5,262.3L286.5,262.3z"/>
	</g>
	<g>
		<path class="st1" d="M59.4,290.1l-7.6-8.9h-2.2v12.8h2.4v-9l7.6,9h2.1v-12.8h-2.4V290.1z M77.2,288.4h5.5v-1.9h-5.5v-3.4h5.8v-1.9
			h-8.2v12.8h8.4V292h-5.9V288.4z M108.6,289.1l-3.4-7.9h-2.1l-3.3,7.9l-3.2-7.9h-2.6l5.3,12.9h0.8l4-9.5l4,9.5h0.8l5.2-12.9h-2.5
			L108.6,289.1z M151.7,281.2h-11.2v1.9h7l-7.4,10.8h11.7V292h-7.5L151.7,281.2z M166.1,288.4h5.5v-1.9h-5.5v-3.4h5.8v-1.9h-8.2
			v12.8h8.4V292h-5.9V288.4z M188.4,281.2l-5.3,12.8h2.6l1.2-3.1h5.7l1.3,3.1h2.6l-5.6-12.8H188.4L188.4,281.2z M187.7,289l2-5
			l2.1,5H187.7z M210.6,281.2h-2.5v12.8h8.6V292h-6.2L210.6,281.2z M232.5,281.2l-5.3,12.8h2.6l1.2-3.1h5.7l1.3,3.1h2.6l-5.6-12.8
			H232.5z M231.8,289l2-5l2.1,5H231.8z M262,290.1l-7.6-8.9h-2.2v12.8h2.4v-9l7.6,9h2.1v-12.8H262V290.1z M286.1,282
			c-1-0.5-2.2-0.8-3.5-0.8h-5.3v12.8h5.2c1.4,0,2.6-0.3,3.6-0.8s1.9-1.3,2.5-2.2c0.6-1,0.9-2.1,0.9-3.3c0-1.2-0.3-2.3-0.9-3.3
			C288,283.3,287.2,282.5,286.1,282L286.1,282z M285.6,290.8c-0.8,0.8-1.9,1.2-3.3,1.2h-2.6v-8.9h2.5c1.4,0,2.5,0.4,3.4,1.2
			c0.8,0.8,1.2,1.9,1.2,3.3C286.9,288.9,286.5,290,285.6,290.8L285.6,290.8z"/>
	</g>
</g>
</svg>
